<svg width="30" height="28" viewBox="0 0 30 28" fill="none" xmlns="http://www.w3.org/2000/svg">
<path d="M15 0C15.7233 0 16.417 0.287337 16.9285 0.7988C17.4399 1.31026 17.7273 2.00396 17.7273 2.72727C17.7273 3.73636 17.1818 4.62273 16.3636 5.08636V6.81818H17.7273C20.2589 6.81818 22.6868 7.82386 24.4769 9.61398C26.267 11.4041 27.2727 13.832 27.2727 16.3636H28.6364C28.998 16.3636 29.3449 16.5073 29.6006 16.763C29.8563 17.0188 30 17.3656 30 17.7273V21.8182C30 22.1798 29.8563 22.5267 29.6006 22.7824C29.3449 23.0382 28.998 23.1818 28.6364 23.1818H27.2727V24.5455C27.2727 25.2688 26.9854 25.9625 26.4739 26.4739C25.9625 26.9854 25.2688 27.2727 24.5455 27.2727H5.45455C4.73123 27.2727 4.03754 26.9854 3.52607 26.4739C3.01461 25.9625 2.72727 25.2688 2.72727 24.5455V23.1818H1.36364C1.00198 23.1818 0.655131 23.0382 0.3994 22.7824C0.143668 22.5267 0 22.1798 0 21.8182V17.7273C0 17.3656 0.143668 17.0188 0.3994 16.763C0.655131 16.5073 1.00198 16.3636 1.36364 16.3636H2.72727C2.72727 13.832 3.73295 11.4041 5.52307 9.61398C7.31319 7.82386 9.74112 6.81818 12.2727 6.81818H13.6364V5.08636C12.8182 4.62273 12.2727 3.73636 12.2727 2.72727C12.2727 2.00396 12.5601 1.31026 13.0715 0.7988C13.583 0.287337 14.2767 0 15 0ZM8.86364 15C7.95949 15 7.09237 15.3592 6.45304 15.9985C5.81372 16.6378 5.45455 17.5049 5.45455 18.4091C5.45455 19.3132 5.81372 20.1804 6.45304 20.8197C7.09237 21.459 7.95949 21.8182 8.86364 21.8182C9.76778 21.8182 10.6349 21.459 11.2742 20.8197C11.9136 20.1804 12.2727 19.3132 12.2727 18.4091C12.2727 17.5049 11.9136 16.6378 11.2742 15.9985C10.6349 15.3592 9.76778 15 8.86364 15ZM21.1364 15C20.2322 15 19.3651 15.3592 18.7258 15.9985C18.0864 16.6378 17.7273 17.5049 17.7273 18.4091C17.7273 19.3132 18.0864 20.1804 18.7258 20.8197C19.3651 21.459 20.2322 21.8182 21.1364 21.8182C22.0405 21.8182 22.9076 21.459 23.547 20.8197C24.1863 20.1804 24.5455 19.3132 24.5455 18.4091C24.5455 17.5049 24.1863 16.6378 23.547 15.9985C22.9076 15.3592 22.0405 15 21.1364 15Z" fill="white"/>
</svg>
