<svg width="32" height="32" viewBox="0 0 32 32" fill="none" xmlns="http://www.w3.org/2000/svg">
<path d="M1 31.4465V7.07153C1 5.57969 1.59263 4.14895 2.64752 3.09406C3.70242 2.03917 5.13316 1.44653 6.625 1.44653H25.375C26.8668 1.44653 28.2976 2.03917 29.3525 3.09406C30.4074 4.14895 31 5.57969 31 7.07153V18.3215C31 19.8134 30.4074 21.2441 29.3525 22.299C28.2976 23.3539 26.8668 23.9465 25.375 23.9465H8.5L1 31.4465ZM11.3125 8.94653H11.3313ZM20.6875 8.94653H20.7063Z" fill="white"/>
<path d="M11.3125 8.94653H11.3313M20.6875 8.94653H20.7063M1 31.4465V7.07153C1 5.57969 1.59263 4.14895 2.64752 3.09406C3.70242 2.03917 5.13316 1.44653 6.625 1.44653H25.375C26.8668 1.44653 28.2976 2.03917 29.3525 3.09406C30.4074 4.14895 31 5.57969 31 7.07153V18.3215C31 19.8134 30.4074 21.2441 29.3525 22.299C28.2976 23.3539 26.8668 23.9465 25.375 23.9465H8.5L1 31.4465Z" stroke="black" stroke-linecap="round" stroke-linejoin="round"/>
<path d="M11.3125 16.4465C11.9235 17.0702 12.6528 17.5656 13.4577 17.9038C14.2626 18.242 15.1269 18.4162 16 18.4162C16.8731 18.4162 17.7374 18.242 18.5423 17.9038C19.3472 17.5656 20.0765 17.0702 20.6875 16.4465" fill="white"/>
<path d="M11.3125 16.4465C11.9235 17.0702 12.6528 17.5656 13.4577 17.9038C14.2626 18.242 15.1269 18.4162 16 18.4162C16.8731 18.4162 17.7374 18.242 18.5423 17.9038C19.3472 17.5656 20.0765 17.0702 20.6875 16.4465" stroke="black" stroke-linecap="round" stroke-linejoin="round"/>
</svg>
