<svg width="30" height="31" viewBox="0 0 30 31" fill="none" xmlns="http://www.w3.org/2000/svg">
<path d="M14.101 24.6867L25.1946 13.5931C23.3281 12.8139 21.6331 11.6753 20.2058 10.2423C18.772 8.81463 17.633 7.11904 16.8534 5.25194L5.75979 16.3455C4.89432 17.211 4.46083 17.6445 4.08885 18.1215C3.64952 18.6844 3.27282 19.2934 2.96539 19.9379C2.7059 20.4839 2.5124 21.0659 2.12542 22.2268L0.0824903 28.3511C-0.0115357 28.6315 -0.0254859 28.9326 0.0422075 29.2205C0.109901 29.5084 0.256554 29.7717 0.465684 29.9809C0.674813 30.19 0.938128 30.3366 1.22603 30.4043C1.51393 30.472 1.81501 30.4581 2.09542 30.364L8.2197 28.3211C9.38216 27.9341 9.96264 27.7406 10.5086 27.4811C11.1536 27.1737 11.7626 26.7972 12.3251 26.3577C12.802 25.9857 13.2355 25.5522 14.101 24.6867ZM28.2725 10.5153C29.3786 9.40914 30 7.90893 30 6.34465C30 4.78037 29.3786 3.28016 28.2725 2.17405C27.1664 1.06794 25.6662 0.446533 24.1019 0.446533C22.5376 0.446533 21.0374 1.06794 19.9313 2.17405L18.6008 3.5045L18.6578 3.671C19.3135 5.54701 20.3864 7.24972 21.7957 8.65082C23.2387 10.1023 25.001 11.1964 26.942 11.8457L28.2725 10.5153Z" fill="white"/>
</svg>
