<svg width="30" height="31" viewBox="0 0 30 31" fill="none" xmlns="http://www.w3.org/2000/svg">
<path d="M3.75 30.4465C2.71875 30.4465 1.83563 30.1525 1.10063 29.5645C0.365628 28.9765 -0.00124682 28.2705 3.18336e-06 27.4465V3.44654C3.18336e-06 2.62154 0.367503 1.91504 1.1025 1.32704C1.8375 0.739036 2.72 0.445536 3.75 0.446536H26.25C27.2812 0.446536 28.1644 0.740536 28.8994 1.32854C29.6344 1.91654 30.0012 2.62254 30 3.44654V27.4465C30 28.2715 29.6325 28.978 28.8975 29.566C28.1625 30.154 27.28 30.4475 26.25 30.4465H3.75ZM15 25.9465C17.5937 25.9465 19.805 25.215 21.6337 23.752C23.4625 22.289 24.3762 20.5205 24.375 18.4465C24.375 16.3715 23.4606 14.6025 21.6319 13.1395C19.8031 11.6765 17.5925 10.9455 15 10.9465C12.4063 10.9465 10.195 11.678 8.36625 13.141C6.5375 14.604 5.62375 16.3725 5.625 18.4465C5.625 20.5215 6.53938 22.2905 8.36813 23.7535C10.1969 25.2165 12.4075 25.9475 15 25.9465ZM15 23.3965C14.1875 23.3965 13.3981 23.2775 12.6319 23.0395C11.8656 22.8015 11.1863 22.4455 10.5938 21.9715L19.4062 14.9215C20 15.3965 20.4456 15.9405 20.7431 16.5535C21.0406 17.1665 21.1887 17.7975 21.1875 18.4465C21.1875 19.8215 20.5856 20.99 19.3819 21.952C18.1781 22.914 16.7175 23.3955 15 23.3965ZM7.5 7.94653C8.03125 7.94653 8.47688 7.80253 8.83688 7.51453C9.19688 7.22653 9.37625 6.87054 9.375 6.44654C9.375 6.02154 9.195 5.66504 8.835 5.37704C8.475 5.08904 8.03 4.94553 7.5 4.94653C6.96875 4.94653 6.52313 5.09054 6.16313 5.37854C5.80313 5.66654 5.62375 6.02254 5.625 6.44654C5.625 6.87154 5.805 7.22803 6.165 7.51603C6.525 7.80403 6.97 7.94753 7.5 7.94653ZM13.125 7.94653C13.6563 7.94653 14.1019 7.80253 14.4619 7.51453C14.8219 7.22653 15.0012 6.87054 15 6.44654C15 6.02154 14.82 5.66504 14.46 5.37704C14.1 5.08904 13.655 4.94553 13.125 4.94653C12.5938 4.94653 12.1481 5.09054 11.7881 5.37854C11.4281 5.66654 11.2488 6.02254 11.25 6.44654C11.25 6.87154 11.43 7.22803 11.79 7.51603C12.15 7.80403 12.595 7.94753 13.125 7.94653Z" fill="white"/>
</svg>
