<svg width="30" height="31" viewBox="0 0 30 31" fill="none" xmlns="http://www.w3.org/2000/svg">
<path fill-rule="evenodd" clip-rule="evenodd" d="M22.8855 9.0047C23.2731 8.68185 23.7731 8.52614 24.2755 8.57182C24.7779 8.61749 25.2417 8.86081 25.5647 9.24828L29.5285 14.0055C29.8373 14.3947 29.9816 14.8892 29.9307 15.3833C29.8798 15.8775 29.6377 16.3321 29.256 16.6502C28.8744 16.9682 28.3835 17.1244 27.8883 17.0853C27.3931 17.0463 26.9327 16.8151 26.6056 16.4413L22.6419 11.684C22.319 11.2963 22.1633 10.7963 22.209 10.2939C22.2547 9.7915 22.498 9.32778 22.8855 9.0047Z" fill="white"/>
<path fill-rule="evenodd" clip-rule="evenodd" d="M22.8866 21.4417C22.4988 21.1189 22.2551 20.6553 22.2091 20.1529C22.1631 19.6505 22.3185 19.1503 22.6411 18.7624L26.6068 14.0052C26.7645 13.8064 26.9603 13.6412 27.1828 13.5192C27.4054 13.3973 27.65 13.3211 27.9024 13.2951C28.1548 13.2691 28.4099 13.2938 28.6526 13.3678C28.8953 13.4418 29.1207 13.5636 29.3156 13.7261C29.5106 13.8885 29.671 14.0883 29.7876 14.3137C29.9042 14.5391 29.9745 14.7855 29.9944 15.0384C30.0144 15.2914 29.9835 15.5458 29.9037 15.7866C29.8239 16.0275 29.6967 16.2499 29.5296 16.4409L25.5659 21.1981C25.2428 21.5856 24.7791 21.8289 24.2766 21.8746C23.7742 21.9203 23.2742 21.7646 22.8866 21.4417Z" fill="white"/>
<path fill-rule="evenodd" clip-rule="evenodd" d="M27.5921 15.2232C27.5921 15.7279 27.3916 16.2119 27.0348 16.5688C26.6779 16.9257 26.1939 17.1262 25.6892 17.1262H13.3203C12.8157 17.1262 12.3316 16.9257 11.9748 16.5688C11.6179 16.2119 11.4174 15.7279 11.4174 15.2232C11.4174 14.7186 11.6179 14.2346 11.9748 13.8777C12.3316 13.5208 12.8157 13.3203 13.3203 13.3203H25.6892C26.1939 13.3203 26.6779 13.5208 27.0348 13.8777C27.3916 14.2346 27.5921 14.7186 27.5921 15.2232ZM0 1.90291C0 1.39822 0.200484 0.914212 0.557348 0.557348C0.914212 0.200484 1.39822 0 1.90291 0H19.0291C19.5337 0 20.0178 0.200484 20.3746 0.557348C20.7315 0.914212 20.932 1.39822 20.932 1.90291C20.932 2.40759 20.7315 2.8916 20.3746 3.24846C20.0178 3.60533 19.5337 3.80581 19.0291 3.80581H1.90291C1.39822 3.80581 0.914212 3.60533 0.557348 3.24846C0.200484 2.8916 0 2.40759 0 1.90291ZM0 28.5436C0 28.0389 0.200484 27.5549 0.557348 27.198C0.914212 26.8412 1.39822 26.6407 1.90291 26.6407H19.0291C19.5337 26.6407 20.0178 26.8412 20.3746 27.198C20.7315 27.5549 20.932 28.0389 20.932 28.5436C20.932 29.0483 20.7315 29.5323 20.3746 29.8891C20.0178 30.246 19.5337 30.4465 19.0291 30.4465H1.90291C1.39822 30.4465 0.914212 30.246 0.557348 29.8891C0.200484 29.5323 0 29.0483 0 28.5436Z" fill="white"/>
<path fill-rule="evenodd" clip-rule="evenodd" d="M19.0291 0C19.5337 0 20.0178 0.200484 20.3746 0.557348C20.7315 0.914212 20.932 1.39822 20.932 1.90291V9.51453C20.932 10.0192 20.7315 10.5032 20.3746 10.8601C20.0178 11.2169 19.5337 11.4174 19.0291 11.4174C18.5244 11.4174 18.0404 11.2169 17.6835 10.8601C17.3266 10.5032 17.1262 10.0192 17.1262 9.51453V1.90291C17.1262 1.39822 17.3266 0.914212 17.6835 0.557348C18.0404 0.200484 18.5244 0 19.0291 0ZM19.0291 19.0291C19.5337 19.0291 20.0178 19.2295 20.3746 19.5864C20.7315 19.9433 20.932 20.4273 20.932 20.932V28.5436C20.932 29.0483 20.7315 29.5323 20.3746 29.8891C20.0178 30.246 19.5337 30.4465 19.0291 30.4465C18.5244 30.4465 18.0404 30.246 17.6835 29.8891C17.3266 29.5323 17.1262 29.0483 17.1262 28.5436V20.932C17.1262 20.4273 17.3266 19.9433 17.6835 19.5864C18.0404 19.2295 18.5244 19.0291 19.0291 19.0291ZM1.90291 0C2.40759 0 2.8916 0.200484 3.24846 0.557348C3.60533 0.914212 3.80581 1.39822 3.80581 1.90291V28.5436C3.80581 29.0483 3.60533 29.5323 3.24846 29.8891C2.8916 30.246 2.40759 30.4465 1.90291 30.4465C1.39822 30.4465 0.914212 30.246 0.557348 29.8891C0.200484 29.5323 0 29.0483 0 28.5436V1.90291C0 1.39822 0.200484 0.914212 0.557348 0.557348C0.914212 0.200484 1.39822 0 1.90291 0Z" fill="white"/>
</svg>
