<svg width="30" height="31" viewBox="0 0 30 31" fill="none" xmlns="http://www.w3.org/2000/svg">
<path d="M29.8359 24.1307C29.8359 25.8058 29.2072 27.4122 28.0882 28.5967C26.9691 29.7811 25.4513 30.4465 23.8687 30.4465H19.3933C17.8107 30.4465 16.293 29.7811 15.1739 28.5967C14.0548 27.4122 13.4262 25.8058 13.4262 24.1307V20.9728H23.5554L27.6728 13.4413L30 14.8623L26.6584 20.9728H29.8359V24.1307ZM10.4426 30.4465H0C0 25.7097 -1.33377e-07 20.9728 0.492292 15.9676C0.895077 11.9728 1.61114 7.80443 2.38687 3.60443H1.4918V0.446533H8.95077V3.60443H8.05569C8.83143 7.80443 9.54749 11.9728 9.95027 15.9676C10.4426 20.9728 10.4426 25.7097 10.4426 30.4465Z" fill="white"/>
</svg>
