<svg width="30" height="31" viewBox="0 0 30 31" fill="none" xmlns="http://www.w3.org/2000/svg">
<path fill-rule="evenodd" clip-rule="evenodd" d="M14.9994 14.5642C16.2243 14.5642 17.399 14.0994 18.2652 13.272C19.1313 12.4446 19.6179 11.3225 19.6179 10.1524C19.6179 8.98234 19.1313 7.86019 18.2652 7.03282C17.399 6.20546 16.2243 5.74065 14.9994 5.74065C13.7745 5.74065 12.5997 6.20546 11.7336 7.03282C10.8675 7.86019 10.3809 8.98234 10.3809 10.1524C10.3809 11.3225 10.8675 12.4446 11.7336 13.272C12.5997 14.0994 13.7745 14.5642 14.9994 14.5642ZM14.9994 9.27006C15.2444 9.27006 15.4793 9.36302 15.6525 9.52849C15.8258 9.69397 15.9231 9.9184 15.9231 10.1524C15.9231 10.3864 15.8258 10.6109 15.6525 10.7763C15.4793 10.9418 15.2444 11.0348 14.9994 11.0348C14.7544 11.0348 14.5195 10.9418 14.3462 10.7763C14.173 10.6109 14.0757 10.3864 14.0757 10.1524C14.0757 9.9184 14.173 9.69397 14.3462 9.52849C14.5195 9.36302 14.7544 9.27006 14.9994 9.27006Z" fill="white"/>
<path fill-rule="evenodd" clip-rule="evenodd" d="M5.7627 9.77477C5.7627 14.9154 10.9447 23.3877 14.9998 23.3877C19.0548 23.3877 24.2368 14.9154 24.2368 9.77477C24.2368 4.64653 20.13 0.446533 14.9998 0.446533C9.86949 0.446533 5.7627 4.6483 5.7627 9.77477ZM20.542 9.77477C20.542 13.223 16.4832 19.8583 14.9998 19.8583C13.5163 19.8583 9.45752 13.223 9.45752 9.77477C9.45752 6.54536 11.97 3.97594 14.9998 3.97594C18.0295 3.97594 20.542 6.54536 20.542 9.77477Z" fill="white"/>
<path d="M21.8908 14.5642C21.4009 14.5642 20.931 14.3783 20.5845 14.0473C20.2381 13.7164 20.0434 13.2675 20.0434 12.7995C20.0434 12.3315 20.2381 11.8826 20.5845 11.5516C20.931 11.2207 21.4009 11.0348 21.8908 11.0348C23.102 11.035 24.2798 11.4142 25.244 12.1143C26.2081 12.8145 26.9057 13.7971 27.2299 14.9118L29.7978 23.7354C30.0265 24.5219 30.0617 25.3484 29.9007 26.1501C29.7396 26.9519 29.3866 27.7072 28.8693 28.357C28.352 29.0068 27.6844 29.5336 26.9186 29.8961C26.1528 30.2585 25.3097 30.4469 24.4551 30.4465H5.54125C4.68693 30.4464 3.84421 30.2576 3.07891 29.8949C2.31362 29.5322 1.64646 29.0054 1.12956 28.3556C0.612658 27.7059 0.260002 26.9508 0.0991377 26.1493C-0.061727 25.3478 -0.0264451 24.5217 0.202228 23.7354L2.76828 14.9118C3.09256 13.7968 3.79037 12.814 4.75493 12.1138C5.71949 11.4136 6.89767 11.0346 8.10915 11.0348C8.59912 11.0348 9.06901 11.2207 9.41547 11.5516C9.76193 11.8826 9.95656 12.3315 9.95656 12.7995C9.95656 13.2675 9.76193 13.7164 9.41547 14.0473C9.06901 14.3783 8.59912 14.5642 8.10915 14.5642C7.70562 14.5643 7.31323 14.6907 6.99197 14.924C6.67071 15.1572 6.43824 15.4846 6.33009 15.856L3.76219 24.6795C3.68578 24.9419 3.67398 25.2176 3.72772 25.485C3.78145 25.7525 3.89926 26.0044 4.07192 26.2211C4.24458 26.4379 4.46741 26.6135 4.72296 26.7342C4.97851 26.8549 5.25984 26.9176 5.54494 26.9171H24.4588C24.7435 26.917 25.0244 26.854 25.2795 26.733C25.5346 26.6121 25.757 26.4364 25.9292 26.2197C26.1014 26.0031 26.2189 25.7513 26.2725 25.4842C26.326 25.217 26.3141 24.9416 26.2378 24.6795L23.6718 15.856C23.5635 15.4843 23.3308 15.1567 23.0091 14.9235C22.6875 14.6902 22.2947 14.564 21.8908 14.5642Z" fill="white"/>
</svg>
