<svg width="30" height="30" viewBox="0 0 30 30" fill="none" xmlns="http://www.w3.org/2000/svg">
<path d="M15 30C11.0218 30 7.20644 28.4196 4.3934 25.6066C1.58035 22.7936 0 18.9782 0 15C0 11.0218 1.58035 7.20644 4.3934 4.3934C7.20644 1.58035 11.0218 0 15 0C18.9782 0 22.7936 1.58035 25.6066 4.3934C28.4196 7.20644 30 11.0218 30 15C30 18.9782 28.4196 22.7936 25.6066 25.6066C22.7936 28.4196 18.9782 30 15 30ZM26.625 18C27.1324 16.0322 27.1324 13.9678 26.625 12H20.895C21.034 13.9976 21.034 16.0024 20.895 18H26.625ZM25.395 21H20.565C20.3138 22.808 19.835 24.5771 19.14 26.265C21.7751 25.2929 23.9876 23.4306 25.395 21ZM12.12 18H17.88C18.0428 16.0033 18.0428 13.9967 17.88 12H12.12C11.9572 13.9967 11.9572 16.0033 12.12 18ZM12.495 21C13.11 24.6 14.19 27 15 27C15.81 27 16.89 24.6 17.505 21H12.495ZM3.375 18H9.105C8.96599 16.0024 8.96599 13.9976 9.105 12H3.375C2.86759 13.9678 2.86759 16.0322 3.375 18ZM4.605 21C6.01239 23.4306 8.22492 25.2929 10.86 26.265C10.23 24.825 9.75 23.025 9.435 21H4.605ZM25.395 9C23.9876 6.56941 21.7751 4.70705 19.14 3.735C19.77 5.175 20.25 6.975 20.565 9H25.395ZM12.495 9H17.505C16.89 5.4 15.81 3 15 3C14.19 3 13.11 5.4 12.495 9ZM4.605 9H9.435C9.735 6.975 10.23 5.175 10.86 3.735C8.22492 4.70705 6.01239 6.56941 4.605 9Z" fill="white"/>
</svg>
